<svg width="628" height="388" viewBox="0 0 628 388" fill="none" xmlns="http://www.w3.org/2000/svg">
<rect width="628" height="388" fill="#1E1E1E"/>
<rect width="628" height="388" fill="white"/>
<path d="M313.592 226.144C313.272 226.144 313.048 226.032 312.92 225.808C312.792 225.584 312.728 225.344 312.728 225.088C312.76 224.544 312.888 224.24 313.112 224.176C313.336 224.112 313.608 224.08 313.928 224.08C314.952 224.08 315.672 223.904 316.088 223.552C316.504 223.168 316.76 222.704 316.856 222.16C316.984 221.584 317.048 220.992 317.048 220.384V197.488H313.736C312.648 197.52 311.8 197.76 311.192 198.208C310.584 198.624 310.136 199.296 309.848 200.224C309.56 201.12 309.304 202.288 309.08 203.728C309.048 204.016 308.84 204.24 308.456 204.4C308.104 204.528 307.752 204.592 307.4 204.592C307.176 204.592 306.92 204.512 306.632 204.352C306.376 204.192 306.248 203.952 306.248 203.632L306.392 196.864C306.392 196.416 306.52 196.112 306.776 195.952C307.032 195.792 307.336 195.712 307.688 195.712H331.16C331.512 195.712 331.8 195.792 332.024 195.952C332.28 196.112 332.408 196.416 332.408 196.864L332.6 203.632C332.6 203.952 332.456 204.192 332.168 204.352C331.912 204.512 331.656 204.592 331.4 204.592C331.08 204.592 330.744 204.528 330.392 204.4C330.04 204.24 329.832 204.016 329.768 203.728C329.544 202.288 329.272 201.12 328.952 200.224C328.664 199.296 328.216 198.624 327.608 198.208C327.032 197.76 326.184 197.52 325.064 197.488H321.8V220.384C321.832 220.992 321.896 221.584 321.992 222.16C322.088 222.704 322.344 223.168 322.76 223.552C323.208 223.904 323.928 224.08 324.92 224.08C325.24 224.08 325.512 224.112 325.736 224.176C325.96 224.24 326.088 224.544 326.12 225.088C326.12 225.344 326.056 225.584 325.928 225.808C325.8 226.032 325.576 226.144 325.256 226.144C324.232 226.08 323.256 226.032 322.328 226C321.432 226 320.52 226 319.592 226C317.672 226 315.672 226.048 313.592 226.144ZM336.099 226.144C335.811 226.144 335.603 226.032 335.475 225.808C335.347 225.584 335.283 225.344 335.283 225.088C335.315 224.544 335.443 224.24 335.667 224.176C335.891 224.112 336.163 224.08 336.483 224.08C337.507 224.08 338.227 223.904 338.643 223.552C339.059 223.168 339.315 222.704 339.411 222.16C339.539 221.584 339.603 220.992 339.603 220.384V201.328C339.603 200.72 339.539 200.144 339.411 199.6C339.315 199.024 339.059 198.56 338.643 198.208C338.227 197.824 337.507 197.632 336.483 197.632C336.163 197.632 335.891 197.6 335.667 197.536C335.443 197.472 335.315 197.168 335.283 196.624C335.283 196.368 335.347 196.128 335.475 195.904C335.603 195.68 335.811 195.568 336.099 195.568C337.155 195.6 338.131 195.632 339.027 195.664C339.923 195.696 340.851 195.712 341.811 195.712H356.883C357.235 195.712 357.523 195.792 357.747 195.952C358.003 196.112 358.131 196.416 358.131 196.864L358.275 203.584C358.275 203.904 358.115 204.144 357.795 204.304C357.507 204.464 357.235 204.544 356.979 204.544C356.627 204.544 356.307 204.48 356.019 204.352C355.731 204.192 355.555 203.968 355.491 203.68C355.267 202.24 354.995 201.088 354.675 200.224C354.387 199.328 353.939 198.688 353.331 198.304C352.755 197.888 351.907 197.664 350.787 197.632H344.355V209.824H353.043C353.299 209.856 353.475 209.984 353.571 210.208C353.699 210.432 353.763 210.672 353.763 210.928C353.763 211.152 353.699 211.376 353.571 211.6C353.475 211.792 353.299 211.888 353.043 211.888H344.355V220.96C344.387 221.376 344.451 221.84 344.547 222.352C344.643 222.832 344.915 223.248 345.363 223.6C345.843 223.952 346.627 224.112 347.715 224.08H352.131C353.251 224.048 354.099 223.872 354.675 223.552C355.283 223.2 355.763 222.624 356.115 221.824C356.467 221.024 356.851 219.92 357.267 218.512C357.395 218.192 357.603 217.984 357.891 217.888C358.211 217.792 358.547 217.776 358.899 217.84C359.155 217.872 359.411 217.984 359.667 218.176C359.955 218.368 360.083 218.624 360.051 218.944L359.091 224.992C358.995 225.44 358.835 225.728 358.611 225.856C358.419 225.952 358.115 226 357.699 226H341.859C340.899 226 339.955 226 339.027 226C338.131 226.032 337.155 226.08 336.099 226.144ZM378.903 226.96C376.215 226.96 373.751 226.32 371.511 225.04C369.271 223.76 367.463 221.936 366.087 219.568C364.743 217.2 364.071 214.368 364.071 211.072C364.071 207.808 364.711 204.96 365.991 202.528C367.271 200.064 369.079 198.16 371.415 196.816C373.783 195.44 376.567 194.752 379.767 194.752C380.919 194.752 382.103 194.864 383.319 195.088C384.567 195.312 385.719 195.696 386.775 196.24C387.831 196.752 388.679 197.44 389.319 198.304C389.991 199.168 390.327 200.24 390.327 201.52C390.359 202.896 389.943 204.112 389.079 205.168C388.215 206.192 386.999 206.704 385.431 206.704C384.471 206.704 383.783 206.48 383.367 206.032C382.983 205.552 382.807 205.2 382.839 204.976C382.839 204.88 383.031 204.72 383.415 204.496C383.831 204.24 384.231 203.872 384.615 203.392C385.031 202.88 385.239 202.208 385.239 201.376C385.239 199.936 384.759 198.8 383.799 197.968C382.839 197.104 381.479 196.672 379.719 196.672C377.799 196.672 376.071 197.216 374.535 198.304C373.031 199.392 371.847 200.992 370.983 203.104C370.119 205.184 369.687 207.744 369.687 210.784C369.687 213.344 370.135 215.68 371.031 217.792C371.959 219.872 373.239 221.536 374.871 222.784C376.535 224 378.455 224.608 380.631 224.608C382.359 224.608 383.831 224.256 385.047 223.552C386.295 222.816 387.415 221.648 388.407 220.048C388.695 219.504 389.207 219.456 389.943 219.904C390.231 220.096 390.455 220.336 390.615 220.624C390.775 220.88 390.743 221.152 390.519 221.44C389.303 222.976 388.151 224.144 387.063 224.944C385.975 225.712 384.791 226.24 383.511 226.528C382.231 226.816 380.695 226.96 378.903 226.96ZM395.069 226.144C394.749 226.144 394.525 226.032 394.397 225.808C394.269 225.584 394.205 225.344 394.205 225.088C394.237 224.544 394.365 224.24 394.589 224.176C394.813 224.112 395.085 224.08 395.405 224.08C396.429 224.08 397.149 223.904 397.565 223.552C397.981 223.168 398.237 222.704 398.333 222.16C398.461 221.584 398.525 220.992 398.525 220.384V201.328C398.525 200.72 398.461 200.144 398.333 199.6C398.237 199.024 397.981 198.56 397.565 198.208C397.149 197.824 396.429 197.632 395.405 197.632C395.085 197.632 394.813 197.6 394.589 197.536C394.365 197.472 394.237 197.168 394.205 196.624C394.205 196.368 394.269 196.128 394.397 195.904C394.525 195.68 394.749 195.568 395.069 195.568C396.093 195.6 397.053 195.632 397.949 195.664C398.845 195.696 399.773 195.712 400.733 195.712C402.685 195.712 404.685 195.664 406.733 195.568C407.053 195.568 407.277 195.68 407.405 195.904C407.533 196.128 407.597 196.368 407.597 196.624C407.565 197.168 407.437 197.472 407.213 197.536C407.021 197.6 406.749 197.632 406.397 197.632C405.405 197.632 404.685 197.824 404.237 198.208C403.821 198.56 403.565 199.024 403.469 199.6C403.373 200.144 403.309 200.72 403.277 201.328V209.824H418.349V201.328C418.349 200.72 418.285 200.144 418.157 199.6C418.061 199.024 417.805 198.56 417.389 198.208C416.973 197.824 416.253 197.632 415.229 197.632C414.909 197.632 414.621 197.6 414.365 197.536C414.141 197.472 414.013 197.168 413.981 196.624C413.981 196.368 414.045 196.128 414.173 195.904C414.333 195.68 414.557 195.568 414.845 195.568C416.925 195.664 418.925 195.712 420.845 195.712C421.805 195.712 422.733 195.696 423.629 195.664C424.557 195.632 425.533 195.6 426.557 195.568C426.845 195.568 427.053 195.68 427.181 195.904C427.341 196.128 427.421 196.368 427.421 196.624C427.389 197.168 427.261 197.472 427.037 197.536C426.813 197.6 426.541 197.632 426.221 197.632C425.229 197.632 424.509 197.824 424.061 198.208C423.613 198.56 423.341 199.024 423.245 199.6C423.149 200.144 423.085 200.72 423.053 201.328V220.384C423.085 220.992 423.149 221.584 423.245 222.16C423.341 222.704 423.613 223.168 424.061 223.552C424.509 223.904 425.229 224.08 426.221 224.08C426.541 224.08 426.813 224.112 427.037 224.176C427.261 224.24 427.389 224.544 427.421 225.088C427.421 225.344 427.341 225.584 427.181 225.808C427.053 226.032 426.845 226.144 426.557 226.144C425.533 226.08 424.557 226.032 423.629 226C422.701 226 421.757 226 420.797 226C418.909 226 416.925 226.048 414.845 226.144C414.557 226.144 414.333 226.032 414.173 225.808C414.045 225.584 413.981 225.344 413.981 225.088C414.013 224.544 414.141 224.24 414.365 224.176C414.621 224.112 414.909 224.08 415.229 224.08C416.253 224.08 416.973 223.904 417.389 223.552C417.805 223.168 418.061 222.704 418.157 222.16C418.285 221.584 418.349 220.992 418.349 220.384V211.888H403.277V220.384C403.309 220.992 403.373 221.584 403.469 222.16C403.565 222.704 403.821 223.168 404.237 223.552C404.685 223.904 405.405 224.08 406.397 224.08C406.749 224.08 407.021 224.112 407.213 224.176C407.437 224.24 407.565 224.544 407.597 225.088C407.597 225.344 407.533 225.584 407.405 225.808C407.277 226.032 407.053 226.144 406.733 226.144C404.685 226.048 402.701 226 400.781 226C399.821 226 398.877 226 397.949 226C397.053 226.032 396.093 226.08 395.069 226.144Z" fill="black"/>
<path d="M206.12 226.144C205.8 226.144 205.576 226.032 205.448 225.808C205.32 225.584 205.256 225.344 205.256 225.088C205.288 224.544 205.416 224.24 205.64 224.176C205.864 224.112 206.136 224.08 206.456 224.08C207.48 224.08 208.2 223.904 208.616 223.552C209.032 223.168 209.288 222.704 209.384 222.16C209.512 221.584 209.576 220.992 209.576 220.384V214.384C209.576 214.16 209.4 213.648 209.048 212.848C208.728 212.016 208.296 211.056 207.752 209.968C207.24 208.88 206.696 207.76 206.12 206.608C205.544 205.456 205 204.416 204.488 203.488C204.008 202.528 203.624 201.792 203.336 201.28C202.664 200.064 201.928 199.2 201.128 198.688C200.328 198.144 199.416 197.76 198.392 197.536C197.944 197.44 197.624 197.36 197.432 197.296C197.272 197.232 197.192 196.944 197.192 196.432C197.192 195.888 197.384 195.6 197.768 195.568C198.152 195.504 198.6 195.472 199.112 195.472C201.384 195.472 203.208 195.824 204.584 196.528C205.992 197.232 207.24 198.544 208.328 200.464C209.256 202.192 210.088 203.872 210.824 205.504C211.592 207.136 212.44 208.8 213.368 210.496H213.512L218.84 199.984C219.384 198.896 219.448 198.24 219.032 198.016C218.616 197.76 217.848 197.632 216.728 197.632C216.408 197.632 216.136 197.6 215.912 197.536C215.688 197.472 215.56 197.168 215.528 196.624C215.528 196.368 215.592 196.128 215.72 195.904C215.848 195.68 216.056 195.568 216.344 195.568C217.368 195.6 218.248 195.632 218.984 195.664C219.752 195.696 220.616 195.712 221.576 195.712C222.536 195.712 223.32 195.696 223.928 195.664C224.568 195.632 225.4 195.6 226.424 195.568C226.744 195.568 226.968 195.68 227.096 195.904C227.224 196.128 227.288 196.368 227.288 196.624C227.256 197.168 227.128 197.472 226.904 197.536C226.712 197.6 226.44 197.632 226.088 197.632C224.872 197.632 223.88 197.904 223.112 198.448C222.344 198.96 221.656 199.776 221.048 200.896L215.624 211.12C215.336 211.728 215.096 212.24 214.904 212.656C214.712 213.072 214.568 213.504 214.472 213.952C214.376 214.4 214.328 214.992 214.328 215.728V220.384C214.36 220.992 214.424 221.584 214.52 222.16C214.616 222.704 214.872 223.168 215.288 223.552C215.736 223.904 216.456 224.08 217.448 224.08C217.8 224.08 218.072 224.112 218.264 224.176C218.488 224.24 218.616 224.544 218.648 225.088C218.648 225.344 218.584 225.584 218.456 225.808C218.328 226.032 218.12 226.144 217.832 226.144C216.808 226.08 215.832 226.032 214.904 226C213.976 226 213.032 226 212.072 226C210.184 226 208.2 226.048 206.12 226.144ZM223.632 226.144C223.312 226.144 223.088 226.032 222.96 225.808C222.832 225.584 222.768 225.344 222.768 225.088C222.8 224.544 222.928 224.24 223.152 224.176C223.376 224.112 223.648 224.08 223.968 224.08C224.832 224.08 225.488 223.904 225.936 223.552C226.384 223.2 226.736 222.736 226.992 222.16C227.28 221.584 227.552 220.992 227.808 220.384L236.208 200.512C236.528 199.744 236.592 199.168 236.4 198.784C236.208 198.368 235.888 198.08 235.44 197.92C234.992 197.728 234.496 197.584 233.952 197.488C233.472 197.392 233.152 197.312 232.992 197.248C232.832 197.152 232.752 196.864 232.752 196.384C232.752 195.84 232.944 195.552 233.328 195.52C233.712 195.456 234.16 195.424 234.672 195.424C235.984 195.424 237.104 195.552 238.032 195.808C238.96 196.064 239.76 196.56 240.432 197.296C241.104 198 241.728 199.072 242.304 200.512L250.368 220.384C250.592 220.928 250.832 221.488 251.088 222.064C251.344 222.64 251.68 223.12 252.096 223.504C252.544 223.856 253.104 224.048 253.776 224.08C254.128 224.08 254.4 224.112 254.592 224.176C254.816 224.24 254.944 224.544 254.976 225.088C254.976 225.344 254.896 225.584 254.736 225.808C254.608 226.032 254.4 226.144 254.112 226.144C253.088 226.08 252.192 226.032 251.424 226C250.656 226 249.792 226 248.832 226C246.944 226 244.96 226.048 242.88 226.144C242.56 226.144 242.336 226.032 242.208 225.808C242.08 225.584 242.016 225.344 242.016 225.088C242.048 224.544 242.176 224.24 242.4 224.176C242.624 224.112 242.896 224.08 243.216 224.08C244.784 224.08 245.632 223.792 245.76 223.216C245.92 222.64 245.776 221.696 245.328 220.384L243.696 216.4H231.84C231.36 217.616 231.008 218.496 230.784 219.04C230.592 219.584 230.464 219.936 230.4 220.096C230.368 220.256 230.336 220.352 230.304 220.384C229.952 221.472 229.76 222.288 229.728 222.832C229.728 223.344 229.984 223.68 230.496 223.84C231.04 224 231.936 224.08 233.184 224.08C233.536 224.08 233.808 224.112 234 224.176C234.224 224.24 234.352 224.544 234.384 225.088C234.384 225.344 234.304 225.584 234.144 225.808C234.016 226.032 233.808 226.144 233.52 226.144C232.496 226.08 231.6 226.032 230.832 226C230.096 226 229.248 226 228.288 226C227.648 226 227.104 226 226.656 226C226.24 226.032 225.808 226.048 225.36 226.048C224.912 226.08 224.336 226.112 223.632 226.144ZM232.752 214.336H242.832L237.984 202H237.84L232.752 214.336ZM267.423 226.96C264.095 226.96 261.535 226.384 259.743 225.232C257.951 224.048 257.055 222.32 257.055 220.048C257.055 218.896 257.439 217.952 258.207 217.216C259.007 216.448 260.031 216.064 261.279 216.064C262.111 216.096 262.687 216.304 263.007 216.688C263.359 217.072 263.535 217.36 263.535 217.552C263.535 217.616 263.391 217.728 263.103 217.888C262.815 218.016 262.527 218.272 262.239 218.656C261.951 219.008 261.807 219.568 261.807 220.336C261.807 221.776 262.255 222.928 263.151 223.792C264.047 224.624 265.471 225.04 267.423 225.04C268.799 225.04 269.967 224.784 270.927 224.272C271.919 223.728 272.671 223.04 273.183 222.208C273.695 221.344 273.951 220.464 273.951 219.568C273.951 218.224 273.567 217.12 272.799 216.256C272.031 215.392 271.023 214.656 269.775 214.048C268.559 213.408 267.263 212.8 265.887 212.224C264.511 211.648 263.199 210.992 261.951 210.256C260.735 209.52 259.727 208.608 258.927 207.52C258.127 206.4 257.711 205.008 257.679 203.344C257.647 201.328 258.079 199.696 258.975 198.448C259.871 197.168 261.119 196.24 262.719 195.664C264.319 195.056 266.095 194.752 268.047 194.752C269.487 194.752 270.895 194.96 272.271 195.376C273.679 195.792 274.831 196.448 275.727 197.344C276.655 198.208 277.119 199.36 277.119 200.8C277.119 201.952 276.719 202.912 275.919 203.68C275.151 204.416 274.143 204.784 272.895 204.784C272.063 204.72 271.471 204.512 271.119 204.16C270.799 203.776 270.639 203.488 270.639 203.296C270.639 203.2 270.831 203.088 271.215 202.96C271.599 202.8 271.983 202.544 272.367 202.192C272.751 201.808 272.943 201.248 272.943 200.512C272.943 199.296 272.479 198.368 271.551 197.728C270.623 197.056 269.471 196.72 268.095 196.72C266.015 196.72 264.495 197.216 263.535 198.208C262.607 199.168 262.143 200.256 262.143 201.472C262.143 202.656 262.463 203.616 263.103 204.352C263.743 205.088 264.703 205.808 265.983 206.512C267.423 207.28 268.879 208 270.351 208.672C271.823 209.312 273.183 210.032 274.431 210.832C275.711 211.632 276.735 212.64 277.503 213.856C278.271 215.04 278.655 216.576 278.655 218.464C278.655 220.096 278.143 221.552 277.119 222.832C276.127 224.112 274.783 225.12 273.087 225.856C271.391 226.592 269.503 226.96 267.423 226.96ZM293.579 226.96C290.251 226.96 287.691 226.384 285.899 225.232C284.107 224.048 283.211 222.32 283.211 220.048C283.211 218.896 283.595 217.952 284.363 217.216C285.163 216.448 286.187 216.064 287.435 216.064C288.267 216.096 288.843 216.304 289.163 216.688C289.515 217.072 289.691 217.36 289.691 217.552C289.691 217.616 289.547 217.728 289.259 217.888C288.971 218.016 288.683 218.272 288.395 218.656C288.107 219.008 287.963 219.568 287.963 220.336C287.963 221.776 288.411 222.928 289.307 223.792C290.203 224.624 291.627 225.04 293.579 225.04C294.955 225.04 296.123 224.784 297.083 224.272C298.075 223.728 298.827 223.04 299.339 222.208C299.851 221.344 300.107 220.464 300.107 219.568C300.107 218.224 299.723 217.12 298.955 216.256C298.187 215.392 297.179 214.656 295.931 214.048C294.715 213.408 293.419 212.8 292.043 212.224C290.667 211.648 289.355 210.992 288.107 210.256C286.891 209.52 285.883 208.608 285.083 207.52C284.283 206.4 283.867 205.008 283.835 203.344C283.803 201.328 284.235 199.696 285.131 198.448C286.027 197.168 287.275 196.24 288.875 195.664C290.475 195.056 292.251 194.752 294.203 194.752C295.643 194.752 297.051 194.96 298.427 195.376C299.835 195.792 300.987 196.448 301.883 197.344C302.811 198.208 303.275 199.36 303.275 200.8C303.275 201.952 302.875 202.912 302.075 203.68C301.307 204.416 300.299 204.784 299.051 204.784C298.219 204.72 297.627 204.512 297.275 204.16C296.955 203.776 296.795 203.488 296.795 203.296C296.795 203.2 296.987 203.088 297.371 202.96C297.755 202.8 298.139 202.544 298.523 202.192C298.907 201.808 299.099 201.248 299.099 200.512C299.099 199.296 298.635 198.368 297.707 197.728C296.779 197.056 295.627 196.72 294.251 196.72C292.171 196.72 290.651 197.216 289.691 198.208C288.763 199.168 288.299 200.256 288.299 201.472C288.299 202.656 288.619 203.616 289.259 204.352C289.899 205.088 290.859 205.808 292.139 206.512C293.579 207.28 295.035 208 296.507 208.672C297.979 209.312 299.339 210.032 300.587 210.832C301.867 211.632 302.891 212.64 303.659 213.856C304.427 215.04 304.811 216.576 304.811 218.464C304.811 220.096 304.299 221.552 303.275 222.832C302.283 224.112 300.939 225.12 299.243 225.856C297.547 226.592 295.659 226.96 293.579 226.96Z" fill="#1D4ED8"/>
<path d="M308.5 57L358.296 84.75V140.25L308.5 168L258.704 140.25V84.75L308.5 57Z" fill="black"/>
<rect x="293.32" y="98.736" width="27.6" height="26.64" fill="#4F76E4"/>
<path d="M320.92 75.6427C317.974 75.6427 315.587 78.0305 315.587 80.976C315.587 83.9215 317.974 86.3093 320.92 86.3093C323.866 86.3093 326.253 83.9215 326.253 80.976C326.253 78.0305 323.866 75.6427 320.92 75.6427ZM319.92 142.904L315.146 152.904H326.694L321.92 142.904H319.92ZM319.92 80.976V143.904H321.92V80.976H319.92Z" fill="white"/>
<line x1="293.32" y1="97.736" x2="320.92" y2="97.736" stroke="white" stroke-width="2"/>
<line y1="-1" x2="27.6143" y2="-1" transform="matrix(0.999483 -0.0321573 0.034514 0.999404 293.32 126.264)" stroke="white" stroke-width="2"/>
<path d="M264.073 97.3412C264.035 100.287 266.393 102.702 269.338 102.737C272.284 102.772 274.701 100.412 274.739 97.4668C274.776 94.5215 272.418 92.1058 269.473 92.0711C266.528 92.0364 264.11 94.396 264.073 97.3412ZM334.834 99.1742L344.773 104.065L344.919 92.519L334.859 97.1744L334.834 99.1742ZM269.393 98.4039L335.834 99.186L335.859 97.1862L269.418 96.4041L269.393 98.4039Z" fill="white"/>
<path d="M294.32 86.536L299.094 76.536L287.547 76.536L292.32 86.536L294.32 86.536ZM293.32 143.131C290.374 143.131 287.987 145.518 287.987 148.464C287.987 151.41 290.374 153.797 293.32 153.797C296.266 153.797 298.653 151.41 298.653 148.464C298.653 145.518 296.266 143.131 293.32 143.131ZM292.32 85.536L292.32 148.464L294.32 148.464L294.32 85.536L292.32 85.536Z" fill="white"/>
<path d="M275.732 123.606L265.793 118.715L265.647 130.261L275.707 125.606L275.732 123.606ZM335.827 125.313C335.79 128.259 338.147 130.674 341.093 130.709C344.038 130.744 346.456 128.384 346.493 125.439C346.53 122.493 344.173 120.078 341.227 120.043C338.282 120.008 335.864 122.368 335.827 125.313ZM274.707 125.594L341.147 126.376L341.173 124.376L274.732 123.594L274.707 125.594Z" fill="white"/>
</svg>
