<svg width="342" height="97" viewBox="0 0 342 97" fill="none" xmlns="http://www.w3.org/2000/svg">
<path d="M225.592 61.144C225.272 61.144 225.048 61.032 224.92 60.808C224.792 60.584 224.728 60.344 224.728 60.088C224.76 59.544 224.888 59.24 225.112 59.176C225.336 59.112 225.608 59.08 225.928 59.08C226.952 59.08 227.672 58.904 228.088 58.552C228.504 58.168 228.76 57.704 228.856 57.16C228.984 56.584 229.048 55.992 229.048 55.384V32.488H225.736C224.648 32.52 223.8 32.76 223.192 33.208C222.584 33.624 222.136 34.296 221.848 35.224C221.56 36.12 221.304 37.288 221.08 38.728C221.048 39.016 220.84 39.24 220.456 39.4C220.104 39.528 219.752 39.592 219.4 39.592C219.176 39.592 218.92 39.512 218.632 39.352C218.376 39.192 218.248 38.952 218.248 38.632L218.392 31.864C218.392 31.416 218.52 31.112 218.776 30.952C219.032 30.792 219.336 30.712 219.688 30.712H243.16C243.512 30.712 243.8 30.792 244.024 30.952C244.28 31.112 244.408 31.416 244.408 31.864L244.6 38.632C244.6 38.952 244.456 39.192 244.168 39.352C243.912 39.512 243.656 39.592 243.4 39.592C243.08 39.592 242.744 39.528 242.392 39.4C242.04 39.24 241.832 39.016 241.768 38.728C241.544 37.288 241.272 36.12 240.952 35.224C240.664 34.296 240.216 33.624 239.608 33.208C239.032 32.76 238.184 32.52 237.064 32.488H233.8V55.384C233.832 55.992 233.896 56.584 233.992 57.16C234.088 57.704 234.344 58.168 234.76 58.552C235.208 58.904 235.928 59.08 236.92 59.08C237.24 59.08 237.512 59.112 237.736 59.176C237.96 59.24 238.088 59.544 238.12 60.088C238.12 60.344 238.056 60.584 237.928 60.808C237.8 61.032 237.576 61.144 237.256 61.144C236.232 61.08 235.256 61.032 234.328 61C233.432 61 232.52 61 231.592 61C229.672 61 227.672 61.048 225.592 61.144ZM248.099 61.144C247.811 61.144 247.603 61.032 247.475 60.808C247.347 60.584 247.283 60.344 247.283 60.088C247.315 59.544 247.443 59.24 247.667 59.176C247.891 59.112 248.163 59.08 248.483 59.08C249.507 59.08 250.227 58.904 250.643 58.552C251.059 58.168 251.315 57.704 251.411 57.16C251.539 56.584 251.603 55.992 251.603 55.384V36.328C251.603 35.72 251.539 35.144 251.411 34.6C251.315 34.024 251.059 33.56 250.643 33.208C250.227 32.824 249.507 32.632 248.483 32.632C248.163 32.632 247.891 32.6 247.667 32.536C247.443 32.472 247.315 32.168 247.283 31.624C247.283 31.368 247.347 31.128 247.475 30.904C247.603 30.68 247.811 30.568 248.099 30.568C249.155 30.6 250.131 30.632 251.027 30.664C251.923 30.696 252.851 30.712 253.811 30.712H268.883C269.235 30.712 269.523 30.792 269.747 30.952C270.003 31.112 270.131 31.416 270.131 31.864L270.275 38.584C270.275 38.904 270.115 39.144 269.795 39.304C269.507 39.464 269.235 39.544 268.979 39.544C268.627 39.544 268.307 39.48 268.019 39.352C267.731 39.192 267.555 38.968 267.491 38.68C267.267 37.24 266.995 36.088 266.675 35.224C266.387 34.328 265.939 33.688 265.331 33.304C264.755 32.888 263.907 32.664 262.787 32.632H256.355V44.824H265.043C265.299 44.856 265.475 44.984 265.571 45.208C265.699 45.432 265.763 45.672 265.763 45.928C265.763 46.152 265.699 46.376 265.571 46.6C265.475 46.792 265.299 46.888 265.043 46.888H256.355V55.96C256.387 56.376 256.451 56.84 256.547 57.352C256.643 57.832 256.915 58.248 257.363 58.6C257.843 58.952 258.627 59.112 259.715 59.08H264.131C265.251 59.048 266.099 58.872 266.675 58.552C267.283 58.2 267.763 57.624 268.115 56.824C268.467 56.024 268.851 54.92 269.267 53.512C269.395 53.192 269.603 52.984 269.891 52.888C270.211 52.792 270.547 52.776 270.899 52.84C271.155 52.872 271.411 52.984 271.667 53.176C271.955 53.368 272.083 53.624 272.051 53.944L271.091 59.992C270.995 60.44 270.835 60.728 270.611 60.856C270.419 60.952 270.115 61 269.699 61H253.859C252.899 61 251.955 61 251.027 61C250.131 61.032 249.155 61.08 248.099 61.144ZM290.903 61.96C288.215 61.96 285.751 61.32 283.511 60.04C281.271 58.76 279.463 56.936 278.087 54.568C276.743 52.2 276.071 49.368 276.071 46.072C276.071 42.808 276.711 39.96 277.991 37.528C279.271 35.064 281.079 33.16 283.415 31.816C285.783 30.44 288.567 29.752 291.767 29.752C292.919 29.752 294.103 29.864 295.319 30.088C296.567 30.312 297.719 30.696 298.775 31.24C299.831 31.752 300.679 32.44 301.319 33.304C301.991 34.168 302.327 35.24 302.327 36.52C302.359 37.896 301.943 39.112 301.079 40.168C300.215 41.192 298.999 41.704 297.431 41.704C296.471 41.704 295.783 41.48 295.367 41.032C294.983 40.552 294.807 40.2 294.839 39.976C294.839 39.88 295.031 39.72 295.415 39.496C295.831 39.24 296.231 38.872 296.615 38.392C297.031 37.88 297.239 37.208 297.239 36.376C297.239 34.936 296.759 33.8 295.799 32.968C294.839 32.104 293.479 31.672 291.719 31.672C289.799 31.672 288.071 32.216 286.535 33.304C285.031 34.392 283.847 35.992 282.983 38.104C282.119 40.184 281.687 42.744 281.687 45.784C281.687 48.344 282.135 50.68 283.031 52.792C283.959 54.872 285.239 56.536 286.871 57.784C288.535 59 290.455 59.608 292.631 59.608C294.359 59.608 295.831 59.256 297.047 58.552C298.295 57.816 299.415 56.648 300.407 55.048C300.695 54.504 301.207 54.456 301.943 54.904C302.231 55.096 302.455 55.336 302.615 55.624C302.775 55.88 302.743 56.152 302.519 56.44C301.303 57.976 300.151 59.144 299.063 59.944C297.975 60.712 296.791 61.24 295.511 61.528C294.231 61.816 292.695 61.96 290.903 61.96ZM307.069 61.144C306.749 61.144 306.525 61.032 306.397 60.808C306.269 60.584 306.205 60.344 306.205 60.088C306.237 59.544 306.365 59.24 306.589 59.176C306.813 59.112 307.085 59.08 307.405 59.08C308.429 59.08 309.149 58.904 309.565 58.552C309.981 58.168 310.237 57.704 310.333 57.16C310.461 56.584 310.525 55.992 310.525 55.384V36.328C310.525 35.72 310.461 35.144 310.333 34.6C310.237 34.024 309.981 33.56 309.565 33.208C309.149 32.824 308.429 32.632 307.405 32.632C307.085 32.632 306.813 32.6 306.589 32.536C306.365 32.472 306.237 32.168 306.205 31.624C306.205 31.368 306.269 31.128 306.397 30.904C306.525 30.68 306.749 30.568 307.069 30.568C308.093 30.6 309.053 30.632 309.949 30.664C310.845 30.696 311.773 30.712 312.733 30.712C314.685 30.712 316.685 30.664 318.733 30.568C319.053 30.568 319.277 30.68 319.405 30.904C319.533 31.128 319.597 31.368 319.597 31.624C319.565 32.168 319.437 32.472 319.213 32.536C319.021 32.6 318.749 32.632 318.397 32.632C317.405 32.632 316.685 32.824 316.237 33.208C315.821 33.56 315.565 34.024 315.469 34.6C315.373 35.144 315.309 35.72 315.277 36.328V44.824H330.349V36.328C330.349 35.72 330.285 35.144 330.157 34.6C330.061 34.024 329.805 33.56 329.389 33.208C328.973 32.824 328.253 32.632 327.229 32.632C326.909 32.632 326.621 32.6 326.365 32.536C326.141 32.472 326.013 32.168 325.981 31.624C325.981 31.368 326.045 31.128 326.173 30.904C326.333 30.68 326.557 30.568 326.845 30.568C328.925 30.664 330.925 30.712 332.845 30.712C333.805 30.712 334.733 30.696 335.629 30.664C336.557 30.632 337.533 30.6 338.557 30.568C338.845 30.568 339.053 30.68 339.181 30.904C339.341 31.128 339.421 31.368 339.421 31.624C339.389 32.168 339.261 32.472 339.037 32.536C338.813 32.6 338.541 32.632 338.221 32.632C337.229 32.632 336.509 32.824 336.061 33.208C335.613 33.56 335.341 34.024 335.245 34.6C335.149 35.144 335.085 35.72 335.053 36.328V55.384C335.085 55.992 335.149 56.584 335.245 57.16C335.341 57.704 335.613 58.168 336.061 58.552C336.509 58.904 337.229 59.08 338.221 59.08C338.541 59.08 338.813 59.112 339.037 59.176C339.261 59.24 339.389 59.544 339.421 60.088C339.421 60.344 339.341 60.584 339.181 60.808C339.053 61.032 338.845 61.144 338.557 61.144C337.533 61.08 336.557 61.032 335.629 61C334.701 61 333.757 61 332.797 61C330.909 61 328.925 61.048 326.845 61.144C326.557 61.144 326.333 61.032 326.173 60.808C326.045 60.584 325.981 60.344 325.981 60.088C326.013 59.544 326.141 59.24 326.365 59.176C326.621 59.112 326.909 59.08 327.229 59.08C328.253 59.08 328.973 58.904 329.389 58.552C329.805 58.168 330.061 57.704 330.157 57.16C330.285 56.584 330.349 55.992 330.349 55.384V46.888H315.277V55.384C315.309 55.992 315.373 56.584 315.469 57.16C315.565 57.704 315.821 58.168 316.237 58.552C316.685 58.904 317.405 59.08 318.397 59.08C318.749 59.08 319.021 59.112 319.213 59.176C319.437 59.24 319.565 59.544 319.597 60.088C319.597 60.344 319.533 60.584 319.405 60.808C319.277 61.032 319.053 61.144 318.733 61.144C316.685 61.048 314.701 61 312.781 61C311.821 61 310.877 61 309.949 61C309.053 61.032 308.093 61.08 307.069 61.144Z" fill="#FFF4F4"/>
<path d="M118.12 61.144C117.8 61.144 117.576 61.032 117.448 60.808C117.32 60.584 117.256 60.344 117.256 60.088C117.288 59.544 117.416 59.24 117.64 59.176C117.864 59.112 118.136 59.08 118.456 59.08C119.48 59.08 120.2 58.904 120.616 58.552C121.032 58.168 121.288 57.704 121.384 57.16C121.512 56.584 121.576 55.992 121.576 55.384V49.384C121.576 49.16 121.4 48.648 121.048 47.848C120.728 47.016 120.296 46.056 119.752 44.968C119.24 43.88 118.696 42.76 118.12 41.608C117.544 40.456 117 39.416 116.488 38.488C116.008 37.528 115.624 36.792 115.336 36.28C114.664 35.064 113.928 34.2 113.128 33.688C112.328 33.144 111.416 32.76 110.392 32.536C109.944 32.44 109.624 32.36 109.432 32.296C109.272 32.232 109.192 31.944 109.192 31.432C109.192 30.888 109.384 30.6 109.768 30.568C110.152 30.504 110.6 30.472 111.112 30.472C113.384 30.472 115.208 30.824 116.584 31.528C117.992 32.232 119.24 33.544 120.328 35.464C121.256 37.192 122.088 38.872 122.824 40.504C123.592 42.136 124.44 43.8 125.368 45.496H125.512L130.84 34.984C131.384 33.896 131.448 33.24 131.032 33.016C130.616 32.76 129.848 32.632 128.728 32.632C128.408 32.632 128.136 32.6 127.912 32.536C127.688 32.472 127.56 32.168 127.528 31.624C127.528 31.368 127.592 31.128 127.72 30.904C127.848 30.68 128.056 30.568 128.344 30.568C129.368 30.6 130.248 30.632 130.984 30.664C131.752 30.696 132.616 30.712 133.576 30.712C134.536 30.712 135.32 30.696 135.928 30.664C136.568 30.632 137.4 30.6 138.424 30.568C138.744 30.568 138.968 30.68 139.096 30.904C139.224 31.128 139.288 31.368 139.288 31.624C139.256 32.168 139.128 32.472 138.904 32.536C138.712 32.6 138.44 32.632 138.088 32.632C136.872 32.632 135.88 32.904 135.112 33.448C134.344 33.96 133.656 34.776 133.048 35.896L127.624 46.12C127.336 46.728 127.096 47.24 126.904 47.656C126.712 48.072 126.568 48.504 126.472 48.952C126.376 49.4 126.328 49.992 126.328 50.728V55.384C126.36 55.992 126.424 56.584 126.52 57.16C126.616 57.704 126.872 58.168 127.288 58.552C127.736 58.904 128.456 59.08 129.448 59.08C129.8 59.08 130.072 59.112 130.264 59.176C130.488 59.24 130.616 59.544 130.648 60.088C130.648 60.344 130.584 60.584 130.456 60.808C130.328 61.032 130.12 61.144 129.832 61.144C128.808 61.08 127.832 61.032 126.904 61C125.976 61 125.032 61 124.072 61C122.184 61 120.2 61.048 118.12 61.144ZM135.632 61.144C135.312 61.144 135.088 61.032 134.96 60.808C134.832 60.584 134.768 60.344 134.768 60.088C134.8 59.544 134.928 59.24 135.152 59.176C135.376 59.112 135.648 59.08 135.968 59.08C136.832 59.08 137.488 58.904 137.936 58.552C138.384 58.2 138.736 57.736 138.992 57.16C139.28 56.584 139.552 55.992 139.808 55.384L148.208 35.512C148.528 34.744 148.592 34.168 148.4 33.784C148.208 33.368 147.888 33.08 147.44 32.92C146.992 32.728 146.496 32.584 145.952 32.488C145.472 32.392 145.152 32.312 144.992 32.248C144.832 32.152 144.752 31.864 144.752 31.384C144.752 30.84 144.944 30.552 145.328 30.52C145.712 30.456 146.16 30.424 146.672 30.424C147.984 30.424 149.104 30.552 150.032 30.808C150.96 31.064 151.76 31.56 152.432 32.296C153.104 33 153.728 34.072 154.304 35.512L162.368 55.384C162.592 55.928 162.832 56.488 163.088 57.064C163.344 57.64 163.68 58.12 164.096 58.504C164.544 58.856 165.104 59.048 165.776 59.08C166.128 59.08 166.4 59.112 166.592 59.176C166.816 59.24 166.944 59.544 166.976 60.088C166.976 60.344 166.896 60.584 166.736 60.808C166.608 61.032 166.4 61.144 166.112 61.144C165.088 61.08 164.192 61.032 163.424 61C162.656 61 161.792 61 160.832 61C158.944 61 156.96 61.048 154.88 61.144C154.56 61.144 154.336 61.032 154.208 60.808C154.08 60.584 154.016 60.344 154.016 60.088C154.048 59.544 154.176 59.24 154.4 59.176C154.624 59.112 154.896 59.08 155.216 59.08C156.784 59.08 157.632 58.792 157.76 58.216C157.92 57.64 157.776 56.696 157.328 55.384L155.696 51.4H143.84C143.36 52.616 143.008 53.496 142.784 54.04C142.592 54.584 142.464 54.936 142.4 55.096C142.368 55.256 142.336 55.352 142.304 55.384C141.952 56.472 141.76 57.288 141.728 57.832C141.728 58.344 141.984 58.68 142.496 58.84C143.04 59 143.936 59.08 145.184 59.08C145.536 59.08 145.808 59.112 146 59.176C146.224 59.24 146.352 59.544 146.384 60.088C146.384 60.344 146.304 60.584 146.144 60.808C146.016 61.032 145.808 61.144 145.52 61.144C144.496 61.08 143.6 61.032 142.832 61C142.096 61 141.248 61 140.288 61C139.648 61 139.104 61 138.656 61C138.24 61.032 137.808 61.048 137.36 61.048C136.912 61.08 136.336 61.112 135.632 61.144ZM144.752 49.336H154.832L149.984 37H149.84L144.752 49.336ZM179.423 61.96C176.095 61.96 173.535 61.384 171.743 60.232C169.951 59.048 169.055 57.32 169.055 55.048C169.055 53.896 169.439 52.952 170.207 52.216C171.007 51.448 172.031 51.064 173.279 51.064C174.111 51.096 174.687 51.304 175.007 51.688C175.359 52.072 175.535 52.36 175.535 52.552C175.535 52.616 175.391 52.728 175.103 52.888C174.815 53.016 174.527 53.272 174.239 53.656C173.951 54.008 173.807 54.568 173.807 55.336C173.807 56.776 174.255 57.928 175.151 58.792C176.047 59.624 177.471 60.04 179.423 60.04C180.799 60.04 181.967 59.784 182.927 59.272C183.919 58.728 184.671 58.04 185.183 57.208C185.695 56.344 185.951 55.464 185.951 54.568C185.951 53.224 185.567 52.12 184.799 51.256C184.031 50.392 183.023 49.656 181.775 49.048C180.559 48.408 179.263 47.8 177.887 47.224C176.511 46.648 175.199 45.992 173.951 45.256C172.735 44.52 171.727 43.608 170.927 42.52C170.127 41.4 169.711 40.008 169.679 38.344C169.647 36.328 170.079 34.696 170.975 33.448C171.871 32.168 173.119 31.24 174.719 30.664C176.319 30.056 178.095 29.752 180.047 29.752C181.487 29.752 182.895 29.96 184.271 30.376C185.679 30.792 186.831 31.448 187.727 32.344C188.655 33.208 189.119 34.36 189.119 35.8C189.119 36.952 188.719 37.912 187.919 38.68C187.151 39.416 186.143 39.784 184.895 39.784C184.063 39.72 183.471 39.512 183.119 39.16C182.799 38.776 182.639 38.488 182.639 38.296C182.639 38.2 182.831 38.088 183.215 37.96C183.599 37.8 183.983 37.544 184.367 37.192C184.751 36.808 184.943 36.248 184.943 35.512C184.943 34.296 184.479 33.368 183.551 32.728C182.623 32.056 181.471 31.72 180.095 31.72C178.015 31.72 176.495 32.216 175.535 33.208C174.607 34.168 174.143 35.256 174.143 36.472C174.143 37.656 174.463 38.616 175.103 39.352C175.743 40.088 176.703 40.808 177.983 41.512C179.423 42.28 180.879 43 182.351 43.672C183.823 44.312 185.183 45.032 186.431 45.832C187.711 46.632 188.735 47.64 189.503 48.856C190.271 50.04 190.655 51.576 190.655 53.464C190.655 55.096 190.143 56.552 189.119 57.832C188.127 59.112 186.783 60.12 185.087 60.856C183.391 61.592 181.503 61.96 179.423 61.96ZM205.579 61.96C202.251 61.96 199.691 61.384 197.899 60.232C196.107 59.048 195.211 57.32 195.211 55.048C195.211 53.896 195.595 52.952 196.363 52.216C197.163 51.448 198.187 51.064 199.435 51.064C200.267 51.096 200.843 51.304 201.163 51.688C201.515 52.072 201.691 52.36 201.691 52.552C201.691 52.616 201.547 52.728 201.259 52.888C200.971 53.016 200.683 53.272 200.395 53.656C200.107 54.008 199.963 54.568 199.963 55.336C199.963 56.776 200.411 57.928 201.307 58.792C202.203 59.624 203.627 60.04 205.579 60.04C206.955 60.04 208.123 59.784 209.083 59.272C210.075 58.728 210.827 58.04 211.339 57.208C211.851 56.344 212.107 55.464 212.107 54.568C212.107 53.224 211.723 52.12 210.955 51.256C210.187 50.392 209.179 49.656 207.931 49.048C206.715 48.408 205.419 47.8 204.043 47.224C202.667 46.648 201.355 45.992 200.107 45.256C198.891 44.52 197.883 43.608 197.083 42.52C196.283 41.4 195.867 40.008 195.835 38.344C195.803 36.328 196.235 34.696 197.131 33.448C198.027 32.168 199.275 31.24 200.875 30.664C202.475 30.056 204.251 29.752 206.203 29.752C207.643 29.752 209.051 29.96 210.427 30.376C211.835 30.792 212.987 31.448 213.883 32.344C214.811 33.208 215.275 34.36 215.275 35.8C215.275 36.952 214.875 37.912 214.075 38.68C213.307 39.416 212.299 39.784 211.051 39.784C210.219 39.72 209.627 39.512 209.275 39.16C208.955 38.776 208.795 38.488 208.795 38.296C208.795 38.2 208.987 38.088 209.371 37.96C209.755 37.8 210.139 37.544 210.523 37.192C210.907 36.808 211.099 36.248 211.099 35.512C211.099 34.296 210.635 33.368 209.707 32.728C208.779 32.056 207.627 31.72 206.251 31.72C204.171 31.72 202.651 32.216 201.691 33.208C200.763 34.168 200.299 35.256 200.299 36.472C200.299 37.656 200.619 38.616 201.259 39.352C201.899 40.088 202.859 40.808 204.139 41.512C205.579 42.28 207.035 43 208.507 43.672C209.979 44.312 211.339 45.032 212.587 45.832C213.867 46.632 214.891 47.64 215.659 48.856C216.427 50.04 216.811 51.576 216.811 53.464C216.811 55.096 216.299 56.552 215.275 57.832C214.283 59.112 212.939 60.12 211.243 60.856C209.547 61.592 207.659 61.96 205.579 61.96Z" fill="#1D4ED8"/>
<path d="M47.5 0L88.6362 24.18V72.54L47.5 96.72L6.36379 72.54V24.18L47.5 0Z" fill="white"/>
<rect x="34.96" y="36.3667" width="22.8" height="23.2128" fill="#4F76E4"/>
<path d="M57.76 15.5582C54.8145 15.5582 52.4266 17.946 52.4266 20.8915C52.4266 23.837 54.8145 26.2248 57.76 26.2248C60.7055 26.2248 63.0933 23.837 63.0933 20.8915C63.0933 17.946 60.7055 15.5582 57.76 15.5582ZM56.76 73.5661L51.9865 83.5661H63.5335L58.76 73.5661H56.76ZM56.76 20.8915V74.5661H58.76V20.8915H56.76Z" fill="black"/>
<line x1="34.96" y1="35.3667" x2="57.76" y2="35.3667" stroke="black" stroke-width="2"/>
<line y1="-1" x2="22.8131" y2="-1" transform="matrix(0.999425 -0.0339173 0.032723 0.999464 34.96 60.3533)" stroke="black" stroke-width="2"/>
<path d="M9.8717 35.1399C9.83642 38.0852 12.1954 40.5025 15.1407 40.5391C18.086 40.5756 20.5023 38.2176 20.5375 35.2723C20.5728 32.327 18.2138 29.9097 15.2685 29.8731C12.3232 29.8366 9.90698 32.1946 9.8717 35.1399ZM67.5134 36.8556L77.4555 41.7529L77.5938 30.2068L67.5374 34.8558L67.5134 36.8556ZM15.1926 36.206L68.5133 36.8681L68.5373 34.8682L15.2166 34.2062L15.1926 36.206Z" fill="black"/>
<path d="M35.96 27.0227L40.7335 17.0227L29.1865 17.0227L33.96 27.0227L35.96 27.0227ZM34.96 74.3639C32.0145 74.3639 29.6267 76.7518 29.6267 79.6973C29.6267 82.6428 32.0145 85.0306 34.96 85.0306C37.9055 85.0306 40.2934 82.6428 40.2934 79.6973C40.2934 76.7518 37.9055 74.3639 34.96 74.3639ZM33.96 26.0227L33.96 79.6973L35.96 79.6973L35.96 26.0227L33.96 26.0227Z" fill="black"/>
<path d="M22.1712 57.93L12.2292 53.0327L12.0909 64.5788L22.1473 59.9298L22.1712 57.93ZM69.1471 59.5133C69.1118 62.4586 71.4708 64.8759 74.4161 64.9125C77.3614 64.949 79.7777 62.591 79.8129 59.6457C79.8482 56.7004 77.4892 54.2831 74.5439 54.2466C71.5986 54.21 69.1824 56.568 69.1471 59.5133ZM21.1473 59.9174L74.468 60.5794L74.492 58.5796L21.1713 57.9176L21.1473 59.9174Z" fill="black"/>
</svg>
