<svg width="115" height="111" viewBox="0 0 115 111" fill="none" xmlns="http://www.w3.org/2000/svg">
<path d="M57.5 0L107.296 27.75V83.25L57.5 111L7.70354 83.25V27.75L57.5 0Z" fill="black"/>
<rect x="42.32" y="41.736" width="27.6" height="26.64" fill="#4F76E4"/>
<path d="M69.92 18.6427C66.9745 18.6427 64.5867 21.0305 64.5867 23.976C64.5867 26.9215 66.9745 29.3093 69.92 29.3093C72.8655 29.3093 75.2533 26.9215 75.2533 23.976C75.2533 21.0305 72.8655 18.6427 69.92 18.6427ZM68.92 85.904L64.1465 95.904H75.6935L70.92 85.904H68.92ZM68.92 23.976V86.904H70.92V23.976H68.92Z" fill="white"/>
<line x1="42.32" y1="40.736" x2="69.92" y2="40.736" stroke="white" stroke-width="2"/>
<line y1="-1" x2="27.6143" y2="-1" transform="matrix(0.999483 -0.0321573 0.034514 0.999404 42.32 69.264)" stroke="white" stroke-width="2"/>
<path d="M13.0726 40.3412C13.0354 43.2865 15.3929 45.7023 18.3382 45.7369C21.2835 45.7716 23.7014 43.4121 23.7386 40.4668C23.7758 37.5215 21.4183 35.1058 18.473 35.0711C15.5277 35.0364 13.1099 37.396 13.0726 40.3412ZM83.8337 42.1742L93.7727 47.0651L93.9186 35.519L83.8589 40.1744L83.8337 42.1742ZM18.393 41.4039L84.8336 42.186L84.8589 40.1862L18.4182 39.4041L18.393 41.4039Z" fill="white"/>
<path d="M43.32 29.536L48.0935 19.536L36.5465 19.536L41.32 29.536L43.32 29.536ZM42.32 86.1307C39.3745 86.1307 36.9867 88.5185 36.9867 91.464C36.9867 94.4095 39.3745 96.7973 42.32 96.7973C45.2655 96.7973 47.6533 94.4095 47.6533 91.464C47.6533 88.5185 45.2655 86.1307 42.32 86.1307ZM41.32 28.536L41.32 91.464L43.32 91.464L43.32 28.536L41.32 28.536Z" fill="white"/>
<path d="M24.7319 66.6058L14.7929 61.715L14.6471 73.261L24.7067 68.6056L24.7319 66.6058ZM84.827 68.3132C84.7898 71.2585 87.1473 73.6742 90.0926 73.7089C93.0379 73.7436 95.4558 71.3841 95.493 68.4388C95.5302 65.4935 93.1727 63.0778 90.2274 63.0431C87.2821 63.0084 84.8643 65.3679 84.827 68.3132ZM23.7067 68.5939L90.1474 69.3759L90.1726 67.3761L23.732 66.594L23.7067 68.5939Z" fill="white"/>
</svg>
