<svg width="233" height="55" viewBox="0 0 233 55" fill="none" xmlns="http://www.w3.org/2000/svg">
<path d="M116.592 44.144C116.272 44.144 116.048 44.032 115.92 43.808C115.792 43.584 115.728 43.344 115.728 43.088C115.76 42.544 115.888 42.24 116.112 42.176C116.336 42.112 116.608 42.08 116.928 42.08C117.952 42.08 118.672 41.904 119.088 41.552C119.504 41.168 119.76 40.704 119.856 40.16C119.984 39.584 120.048 38.992 120.048 38.384V15.488H116.736C115.648 15.52 114.8 15.76 114.192 16.208C113.584 16.624 113.136 17.296 112.848 18.224C112.56 19.12 112.304 20.288 112.08 21.728C112.048 22.016 111.84 22.24 111.456 22.4C111.104 22.528 110.752 22.592 110.4 22.592C110.176 22.592 109.92 22.512 109.632 22.352C109.376 22.192 109.248 21.952 109.248 21.632L109.392 14.864C109.392 14.416 109.52 14.112 109.776 13.952C110.032 13.792 110.336 13.712 110.688 13.712H134.16C134.512 13.712 134.8 13.792 135.024 13.952C135.28 14.112 135.408 14.416 135.408 14.864L135.6 21.632C135.6 21.952 135.456 22.192 135.168 22.352C134.912 22.512 134.656 22.592 134.4 22.592C134.08 22.592 133.744 22.528 133.392 22.4C133.04 22.24 132.832 22.016 132.768 21.728C132.544 20.288 132.272 19.12 131.952 18.224C131.664 17.296 131.216 16.624 130.608 16.208C130.032 15.76 129.184 15.52 128.064 15.488H124.8V38.384C124.832 38.992 124.896 39.584 124.992 40.16C125.088 40.704 125.344 41.168 125.76 41.552C126.208 41.904 126.928 42.08 127.92 42.08C128.24 42.08 128.512 42.112 128.736 42.176C128.96 42.24 129.088 42.544 129.12 43.088C129.12 43.344 129.056 43.584 128.928 43.808C128.8 44.032 128.576 44.144 128.256 44.144C127.232 44.08 126.256 44.032 125.328 44C124.432 44 123.52 44 122.592 44C120.672 44 118.672 44.048 116.592 44.144ZM139.099 44.144C138.811 44.144 138.603 44.032 138.475 43.808C138.347 43.584 138.283 43.344 138.283 43.088C138.315 42.544 138.443 42.24 138.667 42.176C138.891 42.112 139.163 42.08 139.483 42.08C140.507 42.08 141.227 41.904 141.643 41.552C142.059 41.168 142.315 40.704 142.411 40.16C142.539 39.584 142.603 38.992 142.603 38.384V19.328C142.603 18.72 142.539 18.144 142.411 17.6C142.315 17.024 142.059 16.56 141.643 16.208C141.227 15.824 140.507 15.632 139.483 15.632C139.163 15.632 138.891 15.6 138.667 15.536C138.443 15.472 138.315 15.168 138.283 14.624C138.283 14.368 138.347 14.128 138.475 13.904C138.603 13.68 138.811 13.568 139.099 13.568C140.155 13.6 141.131 13.632 142.027 13.664C142.923 13.696 143.851 13.712 144.811 13.712H159.883C160.235 13.712 160.523 13.792 160.747 13.952C161.003 14.112 161.131 14.416 161.131 14.864L161.275 21.584C161.275 21.904 161.115 22.144 160.795 22.304C160.507 22.464 160.235 22.544 159.979 22.544C159.627 22.544 159.307 22.48 159.019 22.352C158.731 22.192 158.555 21.968 158.491 21.68C158.267 20.24 157.995 19.088 157.675 18.224C157.387 17.328 156.939 16.688 156.331 16.304C155.755 15.888 154.907 15.664 153.787 15.632H147.355V27.824H156.043C156.299 27.856 156.475 27.984 156.571 28.208C156.699 28.432 156.763 28.672 156.763 28.928C156.763 29.152 156.699 29.376 156.571 29.6C156.475 29.792 156.299 29.888 156.043 29.888H147.355V38.96C147.387 39.376 147.451 39.84 147.547 40.352C147.643 40.832 147.915 41.248 148.363 41.6C148.843 41.952 149.627 42.112 150.715 42.08H155.131C156.251 42.048 157.099 41.872 157.675 41.552C158.283 41.2 158.763 40.624 159.115 39.824C159.467 39.024 159.851 37.92 160.267 36.512C160.395 36.192 160.603 35.984 160.891 35.888C161.211 35.792 161.547 35.776 161.899 35.84C162.155 35.872 162.411 35.984 162.667 36.176C162.955 36.368 163.083 36.624 163.051 36.944L162.091 42.992C161.995 43.44 161.835 43.728 161.611 43.856C161.419 43.952 161.115 44 160.699 44H144.859C143.899 44 142.955 44 142.027 44C141.131 44.032 140.155 44.08 139.099 44.144ZM181.903 44.96C179.215 44.96 176.751 44.32 174.511 43.04C172.271 41.76 170.463 39.936 169.087 37.568C167.743 35.2 167.071 32.368 167.071 29.072C167.071 25.808 167.711 22.96 168.991 20.528C170.271 18.064 172.079 16.16 174.415 14.816C176.783 13.44 179.567 12.752 182.767 12.752C183.919 12.752 185.103 12.864 186.319 13.088C187.567 13.312 188.719 13.696 189.775 14.24C190.831 14.752 191.679 15.44 192.319 16.304C192.991 17.168 193.327 18.24 193.327 19.52C193.359 20.896 192.943 22.112 192.079 23.168C191.215 24.192 189.999 24.704 188.431 24.704C187.471 24.704 186.783 24.48 186.367 24.032C185.983 23.552 185.807 23.2 185.839 22.976C185.839 22.88 186.031 22.72 186.415 22.496C186.831 22.24 187.231 21.872 187.615 21.392C188.031 20.88 188.239 20.208 188.239 19.376C188.239 17.936 187.759 16.8 186.799 15.968C185.839 15.104 184.479 14.672 182.719 14.672C180.799 14.672 179.071 15.216 177.535 16.304C176.031 17.392 174.847 18.992 173.983 21.104C173.119 23.184 172.687 25.744 172.687 28.784C172.687 31.344 173.135 33.68 174.031 35.792C174.959 37.872 176.239 39.536 177.871 40.784C179.535 42 181.455 42.608 183.631 42.608C185.359 42.608 186.831 42.256 188.047 41.552C189.295 40.816 190.415 39.648 191.407 38.048C191.695 37.504 192.207 37.456 192.943 37.904C193.231 38.096 193.455 38.336 193.615 38.624C193.775 38.88 193.743 39.152 193.519 39.44C192.303 40.976 191.151 42.144 190.063 42.944C188.975 43.712 187.791 44.24 186.511 44.528C185.231 44.816 183.695 44.96 181.903 44.96ZM198.069 44.144C197.749 44.144 197.525 44.032 197.397 43.808C197.269 43.584 197.205 43.344 197.205 43.088C197.237 42.544 197.365 42.24 197.589 42.176C197.813 42.112 198.085 42.08 198.405 42.08C199.429 42.08 200.149 41.904 200.565 41.552C200.981 41.168 201.237 40.704 201.333 40.16C201.461 39.584 201.525 38.992 201.525 38.384V19.328C201.525 18.72 201.461 18.144 201.333 17.6C201.237 17.024 200.981 16.56 200.565 16.208C200.149 15.824 199.429 15.632 198.405 15.632C198.085 15.632 197.813 15.6 197.589 15.536C197.365 15.472 197.237 15.168 197.205 14.624C197.205 14.368 197.269 14.128 197.397 13.904C197.525 13.68 197.749 13.568 198.069 13.568C199.093 13.6 200.053 13.632 200.949 13.664C201.845 13.696 202.773 13.712 203.733 13.712C205.685 13.712 207.685 13.664 209.733 13.568C210.053 13.568 210.277 13.68 210.405 13.904C210.533 14.128 210.597 14.368 210.597 14.624C210.565 15.168 210.437 15.472 210.213 15.536C210.021 15.6 209.749 15.632 209.397 15.632C208.405 15.632 207.685 15.824 207.237 16.208C206.821 16.56 206.565 17.024 206.469 17.6C206.373 18.144 206.309 18.72 206.277 19.328V27.824H221.349V19.328C221.349 18.72 221.285 18.144 221.157 17.6C221.061 17.024 220.805 16.56 220.389 16.208C219.973 15.824 219.253 15.632 218.229 15.632C217.909 15.632 217.621 15.6 217.365 15.536C217.141 15.472 217.013 15.168 216.981 14.624C216.981 14.368 217.045 14.128 217.173 13.904C217.333 13.68 217.557 13.568 217.845 13.568C219.925 13.664 221.925 13.712 223.845 13.712C224.805 13.712 225.733 13.696 226.629 13.664C227.557 13.632 228.533 13.6 229.557 13.568C229.845 13.568 230.053 13.68 230.181 13.904C230.341 14.128 230.421 14.368 230.421 14.624C230.389 15.168 230.261 15.472 230.037 15.536C229.813 15.6 229.541 15.632 229.221 15.632C228.229 15.632 227.509 15.824 227.061 16.208C226.613 16.56 226.341 17.024 226.245 17.6C226.149 18.144 226.085 18.72 226.053 19.328V38.384C226.085 38.992 226.149 39.584 226.245 40.16C226.341 40.704 226.613 41.168 227.061 41.552C227.509 41.904 228.229 42.08 229.221 42.08C229.541 42.08 229.813 42.112 230.037 42.176C230.261 42.24 230.389 42.544 230.421 43.088C230.421 43.344 230.341 43.584 230.181 43.808C230.053 44.032 229.845 44.144 229.557 44.144C228.533 44.08 227.557 44.032 226.629 44C225.701 44 224.757 44 223.797 44C221.909 44 219.925 44.048 217.845 44.144C217.557 44.144 217.333 44.032 217.173 43.808C217.045 43.584 216.981 43.344 216.981 43.088C217.013 42.544 217.141 42.24 217.365 42.176C217.621 42.112 217.909 42.08 218.229 42.08C219.253 42.08 219.973 41.904 220.389 41.552C220.805 41.168 221.061 40.704 221.157 40.16C221.285 39.584 221.349 38.992 221.349 38.384V29.888H206.277V38.384C206.309 38.992 206.373 39.584 206.469 40.16C206.565 40.704 206.821 41.168 207.237 41.552C207.685 41.904 208.405 42.08 209.397 42.08C209.749 42.08 210.021 42.112 210.213 42.176C210.437 42.24 210.565 42.544 210.597 43.088C210.597 43.344 210.533 43.584 210.405 43.808C210.277 44.032 210.053 44.144 209.733 44.144C207.685 44.048 205.701 44 203.781 44C202.821 44 201.877 44 200.949 44C200.053 44.032 199.093 44.08 198.069 44.144Z" fill="black"/>
<path d="M9.12 44.144C8.8 44.144 8.576 44.032 8.448 43.808C8.32 43.584 8.256 43.344 8.256 43.088C8.288 42.544 8.416 42.24 8.64 42.176C8.864 42.112 9.136 42.08 9.456 42.08C10.48 42.08 11.2 41.904 11.616 41.552C12.032 41.168 12.288 40.704 12.384 40.16C12.512 39.584 12.576 38.992 12.576 38.384V32.384C12.576 32.16 12.4 31.648 12.048 30.848C11.728 30.016 11.296 29.056 10.752 27.968C10.24 26.88 9.696 25.76 9.12 24.608C8.544 23.456 8 22.416 7.488 21.488C7.008 20.528 6.624 19.792 6.336 19.28C5.664 18.064 4.928 17.2 4.128 16.688C3.328 16.144 2.416 15.76 1.392 15.536C0.944 15.44 0.624 15.36 0.432 15.296C0.272 15.232 0.192 14.944 0.192 14.432C0.192 13.888 0.384 13.6 0.768 13.568C1.152 13.504 1.6 13.472 2.112 13.472C4.384 13.472 6.208 13.824 7.584 14.528C8.992 15.232 10.24 16.544 11.328 18.464C12.256 20.192 13.088 21.872 13.824 23.504C14.592 25.136 15.44 26.8 16.368 28.496H16.512L21.84 17.984C22.384 16.896 22.448 16.24 22.032 16.016C21.616 15.76 20.848 15.632 19.728 15.632C19.408 15.632 19.136 15.6 18.912 15.536C18.688 15.472 18.56 15.168 18.528 14.624C18.528 14.368 18.592 14.128 18.72 13.904C18.848 13.68 19.056 13.568 19.344 13.568C20.368 13.6 21.248 13.632 21.984 13.664C22.752 13.696 23.616 13.712 24.576 13.712C25.536 13.712 26.32 13.696 26.928 13.664C27.568 13.632 28.4 13.6 29.424 13.568C29.744 13.568 29.968 13.68 30.096 13.904C30.224 14.128 30.288 14.368 30.288 14.624C30.256 15.168 30.128 15.472 29.904 15.536C29.712 15.6 29.44 15.632 29.088 15.632C27.872 15.632 26.88 15.904 26.112 16.448C25.344 16.96 24.656 17.776 24.048 18.896L18.624 29.12C18.336 29.728 18.096 30.24 17.904 30.656C17.712 31.072 17.568 31.504 17.472 31.952C17.376 32.4 17.328 32.992 17.328 33.728V38.384C17.36 38.992 17.424 39.584 17.52 40.16C17.616 40.704 17.872 41.168 18.288 41.552C18.736 41.904 19.456 42.08 20.448 42.08C20.8 42.08 21.072 42.112 21.264 42.176C21.488 42.24 21.616 42.544 21.648 43.088C21.648 43.344 21.584 43.584 21.456 43.808C21.328 44.032 21.12 44.144 20.832 44.144C19.808 44.08 18.832 44.032 17.904 44C16.976 44 16.032 44 15.072 44C13.184 44 11.2 44.048 9.12 44.144ZM26.6318 44.144C26.3117 44.144 26.0877 44.032 25.9597 43.808C25.8317 43.584 25.7677 43.344 25.7677 43.088C25.7997 42.544 25.9277 42.24 26.1517 42.176C26.3757 42.112 26.6478 42.08 26.9678 42.08C27.8318 42.08 28.4878 41.904 28.9358 41.552C29.3838 41.2 29.7358 40.736 29.9918 40.16C30.2798 39.584 30.5518 38.992 30.8078 38.384L39.2078 18.512C39.5278 17.744 39.5918 17.168 39.3998 16.784C39.2078 16.368 38.8878 16.08 38.4398 15.92C37.9918 15.728 37.4958 15.584 36.9518 15.488C36.4718 15.392 36.1518 15.312 35.9918 15.248C35.8318 15.152 35.7518 14.864 35.7518 14.384C35.7518 13.84 35.9438 13.552 36.3278 13.52C36.7118 13.456 37.1598 13.424 37.6718 13.424C38.9838 13.424 40.1038 13.552 41.0318 13.808C41.9598 14.064 42.7598 14.56 43.4318 15.296C44.1038 16 44.7278 17.072 45.3038 18.512L53.3678 38.384C53.5918 38.928 53.8318 39.488 54.0878 40.064C54.3438 40.64 54.6798 41.12 55.0958 41.504C55.5438 41.856 56.1038 42.048 56.7758 42.08C57.1278 42.08 57.3998 42.112 57.5918 42.176C57.8158 42.24 57.9438 42.544 57.9758 43.088C57.9758 43.344 57.8958 43.584 57.7358 43.808C57.6078 44.032 57.3998 44.144 57.1118 44.144C56.0878 44.08 55.1918 44.032 54.4238 44C53.6558 44 52.7918 44 51.8318 44C49.9438 44 47.9598 44.048 45.8798 44.144C45.5598 44.144 45.3358 44.032 45.2078 43.808C45.0798 43.584 45.0158 43.344 45.0158 43.088C45.0478 42.544 45.1758 42.24 45.3998 42.176C45.6238 42.112 45.8958 42.08 46.2158 42.08C47.7838 42.08 48.6318 41.792 48.7598 41.216C48.9198 40.64 48.7758 39.696 48.3278 38.384L46.6958 34.4H34.8398C34.3598 35.616 34.0078 36.496 33.7838 37.04C33.5918 37.584 33.4638 37.936 33.3997 38.096C33.3678 38.256 33.3358 38.352 33.3038 38.384C32.9518 39.472 32.7598 40.288 32.7278 40.832C32.7278 41.344 32.9838 41.68 33.4958 41.84C34.0398 42 34.9358 42.08 36.1838 42.08C36.5358 42.08 36.8078 42.112 36.9998 42.176C37.2238 42.24 37.3518 42.544 37.3838 43.088C37.3838 43.344 37.3038 43.584 37.1438 43.808C37.0158 44.032 36.8078 44.144 36.5198 44.144C35.4958 44.08 34.5998 44.032 33.8318 44C33.0958 44 32.2478 44 31.2878 44C30.6478 44 30.1038 44 29.6558 44C29.2398 44.032 28.8078 44.048 28.3598 44.048C27.9118 44.08 27.3358 44.112 26.6318 44.144ZM35.7518 32.336H45.8318L40.9838 20H40.8398L35.7518 32.336ZM70.4231 44.96C67.0951 44.96 64.5351 44.384 62.7431 43.232C60.9511 42.048 60.0551 40.32 60.0551 38.048C60.0551 36.896 60.4391 35.952 61.2071 35.216C62.0071 34.448 63.0311 34.064 64.2791 34.064C65.1111 34.096 65.6871 34.304 66.0071 34.688C66.3591 35.072 66.5351 35.36 66.5351 35.552C66.5351 35.616 66.3911 35.728 66.1031 35.888C65.8151 36.016 65.5271 36.272 65.2391 36.656C64.9511 37.008 64.8071 37.568 64.8071 38.336C64.8071 39.776 65.2551 40.928 66.1511 41.792C67.0471 42.624 68.4711 43.04 70.4231 43.04C71.7991 43.04 72.9671 42.784 73.9271 42.272C74.9191 41.728 75.6711 41.04 76.1831 40.208C76.6951 39.344 76.9511 38.464 76.9511 37.568C76.9511 36.224 76.5671 35.12 75.7991 34.256C75.0311 33.392 74.0231 32.656 72.7751 32.048C71.5591 31.408 70.2631 30.8 68.8871 30.224C67.5111 29.648 66.1991 28.992 64.9511 28.256C63.7351 27.52 62.7271 26.608 61.9271 25.52C61.1271 24.4 60.7111 23.008 60.6791 21.344C60.6471 19.328 61.0791 17.696 61.9751 16.448C62.8711 15.168 64.1191 14.24 65.7191 13.664C67.3191 13.056 69.0951 12.752 71.0471 12.752C72.4871 12.752 73.8951 12.96 75.2711 13.376C76.6791 13.792 77.8311 14.448 78.7271 15.344C79.6551 16.208 80.1191 17.36 80.1191 18.8C80.1191 19.952 79.7191 20.912 78.9191 21.68C78.1511 22.416 77.1431 22.784 75.8951 22.784C75.0631 22.72 74.4711 22.512 74.1191 22.16C73.7991 21.776 73.6391 21.488 73.6391 21.296C73.6391 21.2 73.8311 21.088 74.2151 20.96C74.5991 20.8 74.9831 20.544 75.3671 20.192C75.7511 19.808 75.9431 19.248 75.9431 18.512C75.9431 17.296 75.4791 16.368 74.5511 15.728C73.6231 15.056 72.4711 14.72 71.0951 14.72C69.0151 14.72 67.4951 15.216 66.5351 16.208C65.6071 17.168 65.1431 18.256 65.1431 19.472C65.1431 20.656 65.4631 21.616 66.1031 22.352C66.7431 23.088 67.7031 23.808 68.9831 24.512C70.4231 25.28 71.8791 26 73.3511 26.672C74.8231 27.312 76.1831 28.032 77.4311 28.832C78.7111 29.632 79.7351 30.64 80.5031 31.856C81.2711 33.04 81.6551 34.576 81.6551 36.464C81.6551 38.096 81.1431 39.552 80.1191 40.832C79.1271 42.112 77.7831 43.12 76.0871 43.856C74.3911 44.592 72.5031 44.96 70.4231 44.96ZM96.5794 44.96C93.2514 44.96 90.6914 44.384 88.8994 43.232C87.1074 42.048 86.2114 40.32 86.2114 38.048C86.2114 36.896 86.5954 35.952 87.3634 35.216C88.1634 34.448 89.1874 34.064 90.4354 34.064C91.2674 34.096 91.8434 34.304 92.1634 34.688C92.5154 35.072 92.6914 35.36 92.6914 35.552C92.6914 35.616 92.5474 35.728 92.2594 35.888C91.9714 36.016 91.6834 36.272 91.3954 36.656C91.1074 37.008 90.9634 37.568 90.9634 38.336C90.9634 39.776 91.4114 40.928 92.3074 41.792C93.2034 42.624 94.6274 43.04 96.5794 43.04C97.9554 43.04 99.1234 42.784 100.083 42.272C101.075 41.728 101.827 41.04 102.339 40.208C102.851 39.344 103.107 38.464 103.107 37.568C103.107 36.224 102.723 35.12 101.955 34.256C101.187 33.392 100.179 32.656 98.9314 32.048C97.7154 31.408 96.4194 30.8 95.0434 30.224C93.6674 29.648 92.3554 28.992 91.1074 28.256C89.8914 27.52 88.8834 26.608 88.0834 25.52C87.2834 24.4 86.8674 23.008 86.8354 21.344C86.8034 19.328 87.2354 17.696 88.1314 16.448C89.0274 15.168 90.2754 14.24 91.8754 13.664C93.4754 13.056 95.2514 12.752 97.2034 12.752C98.6434 12.752 100.051 12.96 101.427 13.376C102.835 13.792 103.987 14.448 104.883 15.344C105.811 16.208 106.275 17.36 106.275 18.8C106.275 19.952 105.875 20.912 105.075 21.68C104.307 22.416 103.299 22.784 102.051 22.784C101.219 22.72 100.627 22.512 100.275 22.16C99.9554 21.776 99.7954 21.488 99.7954 21.296C99.7954 21.2 99.9874 21.088 100.371 20.96C100.755 20.8 101.139 20.544 101.523 20.192C101.907 19.808 102.099 19.248 102.099 18.512C102.099 17.296 101.635 16.368 100.707 15.728C99.7794 15.056 98.6274 14.72 97.2514 14.72C95.1714 14.72 93.6514 15.216 92.6914 16.208C91.7634 17.168 91.2994 18.256 91.2994 19.472C91.2994 20.656 91.6194 21.616 92.2594 22.352C92.8994 23.088 93.8594 23.808 95.1394 24.512C96.5794 25.28 98.0354 26 99.5074 26.672C100.979 27.312 102.339 28.032 103.587 28.832C104.867 29.632 105.891 30.64 106.659 31.856C107.427 33.04 107.811 34.576 107.811 36.464C107.811 38.096 107.299 39.552 106.275 40.832C105.283 42.112 103.939 43.12 102.243 43.856C100.547 44.592 98.6594 44.96 96.5794 44.96Z" fill="#1D4ED8"/>
</svg>
